<svg xmlns="http://www.w3.org/2000/svg" xmlns:xlink="http://www.w3.org/1999/xlink" width="300" zoomAndPan="magnify" viewBox="0 0 224.87999 89.999999" height="120" preserveAspectRatio="xMidYMid meet" version="1.0"><defs><g/></defs><g fill="#000000" fill-opacity="0.4"><g transform="translate(17.180551, 65.506685)"><g><path d="M 29.5 -27.671875 C 29.613281 -23.878906 29.707031 -20.082031 29.78125 -16.28125 C 29.851562 -12.488281 29.945312 -8.691406 30.0625 -4.890625 C 30.101562 -3.796875 29.835938 -2.925781 29.265625 -2.28125 C 28.691406 -1.632812 27.988281 -1.195312 27.15625 -0.96875 C 26.320312 -0.738281 25.476562 -0.738281 24.625 -0.96875 C 23.769531 -1.195312 23.046875 -1.632812 22.453125 -2.28125 C 21.867188 -2.925781 21.554688 -3.796875 21.515625 -4.890625 C 21.484375 -6.035156 21.457031 -7.175781 21.4375 -8.3125 C 21.414062 -9.445312 21.382812 -10.585938 21.34375 -11.734375 L 12.8125 -12.078125 C 12.507812 -10.628906 12.222656 -9.179688 11.953125 -7.734375 C 11.691406 -6.296875 11.425781 -4.875 11.15625 -3.46875 C 10.96875 -2.375 10.539062 -1.578125 9.875 -1.078125 C 9.207031 -0.585938 8.4375 -0.351562 7.5625 -0.375 C 6.695312 -0.394531 5.875 -0.617188 5.09375 -1.046875 C 4.3125 -1.484375 3.703125 -2.097656 3.265625 -2.890625 C 2.835938 -3.691406 2.71875 -4.625 2.90625 -5.6875 C 3.582031 -9.414062 4.347656 -13.097656 5.203125 -16.734375 C 6.054688 -20.378906 7.265625 -23.929688 8.828125 -27.390625 C 9.585938 -29.128906 10.546875 -30.976562 11.703125 -32.9375 C 12.859375 -34.894531 14.195312 -36.695312 15.71875 -38.34375 C 17.238281 -40 18.90625 -41.222656 20.71875 -42.015625 C 22.425781 -42.742188 23.8125 -42.878906 24.875 -42.421875 C 25.9375 -41.960938 26.769531 -41.132812 27.375 -39.9375 C 27.988281 -38.738281 28.4375 -37.378906 28.71875 -35.859375 C 29.007812 -34.347656 29.203125 -32.851562 29.296875 -31.375 C 29.390625 -29.894531 29.457031 -28.660156 29.5 -27.671875 Z M 15.140625 -20.5 C 16.171875 -20.457031 17.175781 -20.414062 18.15625 -20.375 C 19.144531 -20.34375 20.132812 -20.304688 21.125 -20.265625 C 21.082031 -21.484375 21.050781 -22.707031 21.03125 -23.9375 C 21.019531 -25.175781 20.992188 -26.421875 20.953125 -27.671875 C 20.910156 -28.160156 20.890625 -28.679688 20.890625 -29.234375 C 20.890625 -29.785156 20.890625 -30.347656 20.890625 -30.921875 C 20.242188 -30.160156 19.695312 -29.421875 19.25 -28.703125 C 18.488281 -27.554688 17.796875 -26.375 17.171875 -25.15625 C 16.546875 -23.945312 15.984375 -22.695312 15.484375 -21.40625 C 15.453125 -21.257812 15.40625 -21.109375 15.34375 -20.953125 C 15.289062 -20.796875 15.222656 -20.644531 15.140625 -20.5 Z M 15.140625 -20.5 "/></g></g></g><g fill="#000000" fill-opacity="0.4"><g transform="translate(50.081898, 65.506685)"><g><path d="M 30.34375 -23.34375 C 31.332031 -20.726562 31.5625 -18.175781 31.03125 -15.6875 C 30.5 -13.195312 29.394531 -10.972656 27.71875 -9.015625 C 26.050781 -7.066406 23.96875 -5.597656 21.46875 -4.609375 C 20.101562 -4.078125 18.640625 -3.617188 17.078125 -3.234375 C 15.523438 -2.859375 13.976562 -2.640625 12.4375 -2.578125 C 10.90625 -2.523438 9.492188 -2.71875 8.203125 -3.15625 C 6.910156 -3.59375 5.816406 -4.351562 4.921875 -5.4375 C 4.035156 -6.519531 3.457031 -8.03125 3.1875 -9.96875 C 2.84375 -12.320312 2.742188 -14.703125 2.890625 -17.109375 C 3.046875 -19.515625 3.179688 -21.894531 3.296875 -24.25 C 3.453125 -26.6875 3.613281 -29.097656 3.78125 -31.484375 C 3.957031 -33.878906 4.140625 -36.269531 4.328125 -38.65625 C 4.398438 -39.53125 4.671875 -40.269531 5.140625 -40.875 C 5.617188 -41.488281 6.203125 -41.945312 6.890625 -42.25 C 7.234375 -42.664062 7.648438 -43.015625 8.140625 -43.296875 C 8.628906 -43.585938 9.195312 -43.75 9.84375 -43.78125 C 14.59375 -44.195312 19.335938 -44.390625 24.078125 -44.359375 C 25.179688 -44.359375 26.066406 -44.0625 26.734375 -43.46875 C 27.398438 -42.882812 27.835938 -42.171875 28.046875 -41.328125 C 28.253906 -40.492188 28.253906 -39.648438 28.046875 -38.796875 C 27.835938 -37.941406 27.398438 -37.226562 26.734375 -36.65625 C 26.066406 -36.09375 25.179688 -35.8125 24.078125 -35.8125 C 20.328125 -35.851562 16.515625 -35.738281 12.640625 -35.46875 C 12.597656 -34.9375 12.546875 -34.40625 12.484375 -33.875 C 12.429688 -33.34375 12.390625 -32.8125 12.359375 -32.28125 C 14.785156 -32.351562 17.191406 -32.179688 19.578125 -31.765625 C 21.972656 -31.347656 24.128906 -30.472656 26.046875 -29.140625 C 27.960938 -27.816406 29.394531 -25.882812 30.34375 -23.34375 Z M 14.0625 -11.390625 C 15.125 -11.578125 16.269531 -11.894531 17.5 -12.34375 C 18.738281 -12.800781 19.847656 -13.398438 20.828125 -14.140625 C 21.816406 -14.890625 22.484375 -15.800781 22.828125 -16.875 C 23.171875 -17.957031 22.984375 -19.222656 22.265625 -20.671875 C 21.691406 -21.847656 20.828125 -22.679688 19.671875 -23.171875 C 18.515625 -23.660156 17.242188 -23.925781 15.859375 -23.96875 C 14.472656 -24.007812 13.132812 -23.953125 11.84375 -23.796875 C 11.800781 -23.421875 11.769531 -23.039062 11.75 -22.65625 C 11.738281 -22.28125 11.734375 -21.898438 11.734375 -21.515625 C 11.648438 -20.191406 11.570312 -18.835938 11.5 -17.453125 C 11.425781 -16.066406 11.40625 -14.707031 11.4375 -13.375 C 11.4375 -12.65625 11.457031 -11.972656 11.5 -11.328125 C 11.570312 -11.140625 11.628906 -10.96875 11.671875 -10.8125 C 12.015625 -10.925781 12.457031 -11.039062 13 -11.15625 C 13.550781 -11.269531 13.90625 -11.347656 14.0625 -11.390625 Z M 14.0625 -11.390625 "/></g></g></g><g fill="#000000" fill-opacity="0.4"><g transform="translate(84.178629, 65.506685)"><g><path d="M 23.75 -12.015625 C 24.84375 -11.972656 25.722656 -11.648438 26.390625 -11.046875 C 27.054688 -10.441406 27.492188 -9.710938 27.703125 -8.859375 C 27.910156 -8.003906 27.910156 -7.15625 27.703125 -6.3125 C 27.492188 -5.476562 27.054688 -4.785156 26.390625 -4.234375 C 25.722656 -3.691406 24.84375 -3.4375 23.75 -3.46875 C 21.164062 -3.582031 18.582031 -3.570312 16 -3.4375 C 13.414062 -3.3125 10.832031 -3.039062 8.25 -2.625 C 7.457031 -2.507812 6.625 -2.59375 5.75 -2.875 C 4.875 -3.15625 4.140625 -3.617188 3.546875 -4.265625 C 2.960938 -4.910156 2.75 -5.75 2.90625 -6.78125 C 3.550781 -12.019531 4.257812 -17.253906 5.03125 -22.484375 C 5.8125 -27.722656 6.660156 -32.960938 7.578125 -38.203125 C 7.691406 -38.847656 7.914062 -39.398438 8.25 -39.859375 C 8.5625 -40.390625 9 -40.832031 9.5625 -41.1875 C 10.132812 -41.550781 10.835938 -41.753906 11.671875 -41.796875 C 15.773438 -41.910156 19.875 -41.832031 23.96875 -41.5625 C 25.070312 -41.488281 25.953125 -41.140625 26.609375 -40.515625 C 27.273438 -39.890625 27.710938 -39.148438 27.921875 -38.296875 C 28.128906 -37.441406 28.128906 -36.59375 27.921875 -35.75 C 27.710938 -34.914062 27.273438 -34.234375 26.609375 -33.703125 C 25.953125 -33.171875 25.070312 -32.945312 23.96875 -33.03125 C 21.15625 -33.21875 18.289062 -33.3125 15.375 -33.3125 C 15.1875 -32.207031 14.992188 -31.101562 14.796875 -30 C 14.609375 -28.90625 14.441406 -27.804688 14.296875 -26.703125 C 15.847656 -26.660156 17.347656 -26.566406 18.796875 -26.421875 C 19.929688 -26.304688 20.925781 -25.878906 21.78125 -25.140625 C 22.632812 -24.398438 23.0625 -23.40625 23.0625 -22.15625 C 23.0625 -21.425781 22.859375 -20.71875 22.453125 -20.03125 C 22.054688 -19.351562 21.535156 -18.804688 20.890625 -18.390625 C 20.242188 -17.972656 19.546875 -17.800781 18.796875 -17.875 C 16.859375 -18.0625 14.921875 -18.15625 12.984375 -18.15625 C 12.828125 -17.09375 12.671875 -16.007812 12.515625 -14.90625 C 12.367188 -13.8125 12.222656 -12.734375 12.078125 -11.671875 C 14.003906 -11.859375 15.9375 -11.976562 17.875 -12.03125 C 19.8125 -12.09375 21.769531 -12.085938 23.75 -12.015625 Z M 23.75 -12.015625 "/></g></g></g><g fill="#000000" fill-opacity="0.4"><g transform="translate(115.087686, 65.506685)"><g><path d="M 25.96875 -41.28125 C 27.03125 -41.125 27.882812 -40.710938 28.53125 -40.046875 C 29.175781 -39.390625 29.609375 -38.625 29.828125 -37.75 C 30.054688 -36.875 30.054688 -36.023438 29.828125 -35.203125 C 29.609375 -34.390625 29.175781 -33.738281 28.53125 -33.25 C 27.882812 -32.757812 27.03125 -32.585938 25.96875 -32.734375 C 24.175781 -32.960938 22.351562 -33.132812 20.5 -33.25 C 20.226562 -29.113281 19.96875 -24.96875 19.71875 -20.8125 C 19.476562 -16.65625 19.222656 -12.507812 18.953125 -8.375 C 18.921875 -7.269531 18.59375 -6.394531 17.96875 -5.75 C 17.34375 -5.101562 16.601562 -4.664062 15.75 -4.4375 C 14.894531 -4.207031 14.046875 -4.195312 13.203125 -4.40625 C 12.367188 -4.613281 11.6875 -5.050781 11.15625 -5.71875 C 10.625 -6.382812 10.378906 -7.269531 10.421875 -8.375 C 10.679688 -12.550781 10.9375 -16.71875 11.1875 -20.875 C 11.4375 -25.03125 11.691406 -29.191406 11.953125 -33.359375 C 10.242188 -33.285156 8.578125 -33.175781 6.953125 -33.03125 C 5.847656 -32.914062 4.960938 -33.113281 4.296875 -33.625 C 3.628906 -34.132812 3.191406 -34.796875 2.984375 -35.609375 C 2.773438 -36.429688 2.785156 -37.273438 3.015625 -38.140625 C 3.242188 -39.015625 3.679688 -39.773438 4.328125 -40.421875 C 4.972656 -41.066406 5.847656 -41.445312 6.953125 -41.5625 C 13.285156 -42.164062 19.625 -42.070312 25.96875 -41.28125 Z M 25.96875 -41.28125 "/></g></g></g><g fill="#000000" fill-opacity="0.4"><g transform="translate(147.932117, 65.506685)"><g><path d="M 28.46875 -35.875 C 27.332031 -33.9375 26.109375 -32.023438 24.796875 -30.140625 C 23.484375 -28.265625 21.972656 -26.585938 20.265625 -25.109375 C 23.910156 -20.929688 25.976562 -16 26.46875 -10.3125 C 26.550781 -9.207031 26.332031 -8.320312 25.8125 -7.65625 C 25.300781 -6.988281 24.640625 -6.550781 23.828125 -6.34375 C 23.015625 -6.132812 22.171875 -6.132812 21.296875 -6.34375 C 20.421875 -6.550781 19.660156 -6.988281 19.015625 -7.65625 C 18.367188 -8.320312 18.007812 -9.207031 17.9375 -10.3125 C 17.75 -12.320312 17.195312 -14.238281 16.28125 -16.0625 C 15.375 -17.882812 14.179688 -19.476562 12.703125 -20.84375 C 12.316406 -16.019531 11.800781 -11.253906 11.15625 -6.546875 C 11.039062 -5.785156 10.6875 -5.148438 10.09375 -4.640625 C 9.507812 -4.128906 8.828125 -3.769531 8.046875 -3.5625 C 7.273438 -3.351562 6.546875 -3.34375 5.859375 -3.53125 C 4.648438 -3.90625 3.816406 -4.585938 3.359375 -5.578125 C 2.898438 -6.566406 2.75 -7.648438 2.90625 -8.828125 C 3.625 -14.210938 4.160156 -19.617188 4.515625 -25.046875 C 4.878906 -30.472656 5.082031 -35.90625 5.125 -41.34375 C 5.125 -42.4375 5.40625 -43.316406 5.96875 -43.984375 C 6.539062 -44.648438 7.253906 -45.085938 8.109375 -45.296875 C 8.960938 -45.503906 9.816406 -45.503906 10.671875 -45.296875 C 11.523438 -45.085938 12.238281 -44.648438 12.8125 -43.984375 C 13.382812 -43.316406 13.671875 -42.4375 13.671875 -41.34375 C 13.628906 -39.476562 13.585938 -37.625 13.546875 -35.78125 C 13.515625 -33.945312 13.441406 -32.097656 13.328125 -30.234375 C 14.460938 -30.921875 15.503906 -31.84375 16.453125 -33 C 17.398438 -34.15625 18.253906 -35.378906 19.015625 -36.671875 C 19.773438 -37.960938 20.457031 -39.140625 21.0625 -40.203125 C 21.632812 -41.148438 22.328125 -41.753906 23.140625 -42.015625 C 23.960938 -42.285156 24.800781 -42.304688 25.65625 -42.078125 C 26.507812 -41.847656 27.25 -41.421875 27.875 -40.796875 C 28.5 -40.171875 28.882812 -39.429688 29.03125 -38.578125 C 29.1875 -37.722656 29 -36.820312 28.46875 -35.875 Z M 28.46875 -35.875 "/></g></g></g><g fill="#000000" fill-opacity="0.4"><g transform="translate(179.808861, 65.506685)"><g><path d="M 29.5 -27.671875 C 29.613281 -23.878906 29.707031 -20.082031 29.78125 -16.28125 C 29.851562 -12.488281 29.945312 -8.691406 30.0625 -4.890625 C 30.101562 -3.796875 29.835938 -2.925781 29.265625 -2.28125 C 28.691406 -1.632812 27.988281 -1.195312 27.15625 -0.96875 C 26.320312 -0.738281 25.476562 -0.738281 24.625 -0.96875 C 23.769531 -1.195312 23.046875 -1.632812 22.453125 -2.28125 C 21.867188 -2.925781 21.554688 -3.796875 21.515625 -4.890625 C 21.484375 -6.035156 21.457031 -7.175781 21.4375 -8.3125 C 21.414062 -9.445312 21.382812 -10.585938 21.34375 -11.734375 L 12.8125 -12.078125 C 12.507812 -10.628906 12.222656 -9.179688 11.953125 -7.734375 C 11.691406 -6.296875 11.425781 -4.875 11.15625 -3.46875 C 10.96875 -2.375 10.539062 -1.578125 9.875 -1.078125 C 9.207031 -0.585938 8.4375 -0.351562 7.5625 -0.375 C 6.695312 -0.394531 5.875 -0.617188 5.09375 -1.046875 C 4.3125 -1.484375 3.703125 -2.097656 3.265625 -2.890625 C 2.835938 -3.691406 2.71875 -4.625 2.90625 -5.6875 C 3.582031 -9.414062 4.347656 -13.097656 5.203125 -16.734375 C 6.054688 -20.378906 7.265625 -23.929688 8.828125 -27.390625 C 9.585938 -29.128906 10.546875 -30.976562 11.703125 -32.9375 C 12.859375 -34.894531 14.195312 -36.695312 15.71875 -38.34375 C 17.238281 -40 18.90625 -41.222656 20.71875 -42.015625 C 22.425781 -42.742188 23.8125 -42.878906 24.875 -42.421875 C 25.9375 -41.960938 26.769531 -41.132812 27.375 -39.9375 C 27.988281 -38.738281 28.4375 -37.378906 28.71875 -35.859375 C 29.007812 -34.347656 29.203125 -32.851562 29.296875 -31.375 C 29.390625 -29.894531 29.457031 -28.660156 29.5 -27.671875 Z M 15.140625 -20.5 C 16.171875 -20.457031 17.175781 -20.414062 18.15625 -20.375 C 19.144531 -20.34375 20.132812 -20.304688 21.125 -20.265625 C 21.082031 -21.484375 21.050781 -22.707031 21.03125 -23.9375 C 21.019531 -25.175781 20.992188 -26.421875 20.953125 -27.671875 C 20.910156 -28.160156 20.890625 -28.679688 20.890625 -29.234375 C 20.890625 -29.785156 20.890625 -30.347656 20.890625 -30.921875 C 20.242188 -30.160156 19.695312 -29.421875 19.25 -28.703125 C 18.488281 -27.554688 17.796875 -26.375 17.171875 -25.15625 C 16.546875 -23.945312 15.984375 -22.695312 15.484375 -21.40625 C 15.453125 -21.257812 15.40625 -21.109375 15.34375 -20.953125 C 15.289062 -20.796875 15.222656 -20.644531 15.140625 -20.5 Z M 15.140625 -20.5 "/></g></g></g><g fill="#f4ca44" fill-opacity="1"><g transform="translate(14.664264, 62.990398)"><g><path d="M 29.5 -27.671875 C 29.613281 -23.878906 29.707031 -20.082031 29.78125 -16.28125 C 29.851562 -12.488281 29.945312 -8.691406 30.0625 -4.890625 C 30.101562 -3.796875 29.835938 -2.925781 29.265625 -2.28125 C 28.691406 -1.632812 27.988281 -1.195312 27.15625 -0.96875 C 26.320312 -0.738281 25.476562 -0.738281 24.625 -0.96875 C 23.769531 -1.195312 23.046875 -1.632812 22.453125 -2.28125 C 21.867188 -2.925781 21.554688 -3.796875 21.515625 -4.890625 C 21.484375 -6.035156 21.457031 -7.175781 21.4375 -8.3125 C 21.414062 -9.445312 21.382812 -10.585938 21.34375 -11.734375 L 12.8125 -12.078125 C 12.507812 -10.628906 12.222656 -9.179688 11.953125 -7.734375 C 11.691406 -6.296875 11.425781 -4.875 11.15625 -3.46875 C 10.96875 -2.375 10.539062 -1.578125 9.875 -1.078125 C 9.207031 -0.585938 8.4375 -0.351562 7.5625 -0.375 C 6.695312 -0.394531 5.875 -0.617188 5.09375 -1.046875 C 4.3125 -1.484375 3.703125 -2.097656 3.265625 -2.890625 C 2.835938 -3.691406 2.71875 -4.625 2.90625 -5.6875 C 3.582031 -9.414062 4.347656 -13.097656 5.203125 -16.734375 C 6.054688 -20.378906 7.265625 -23.929688 8.828125 -27.390625 C 9.585938 -29.128906 10.546875 -30.976562 11.703125 -32.9375 C 12.859375 -34.894531 14.195312 -36.695312 15.71875 -38.34375 C 17.238281 -40 18.90625 -41.222656 20.71875 -42.015625 C 22.425781 -42.742188 23.8125 -42.878906 24.875 -42.421875 C 25.9375 -41.960938 26.769531 -41.132812 27.375 -39.9375 C 27.988281 -38.738281 28.4375 -37.378906 28.71875 -35.859375 C 29.007812 -34.347656 29.203125 -32.851562 29.296875 -31.375 C 29.390625 -29.894531 29.457031 -28.660156 29.5 -27.671875 Z M 15.140625 -20.5 C 16.171875 -20.457031 17.175781 -20.414062 18.15625 -20.375 C 19.144531 -20.34375 20.132812 -20.304688 21.125 -20.265625 C 21.082031 -21.484375 21.050781 -22.707031 21.03125 -23.9375 C 21.019531 -25.175781 20.992188 -26.421875 20.953125 -27.671875 C 20.910156 -28.160156 20.890625 -28.679688 20.890625 -29.234375 C 20.890625 -29.785156 20.890625 -30.347656 20.890625 -30.921875 C 20.242188 -30.160156 19.695312 -29.421875 19.25 -28.703125 C 18.488281 -27.554688 17.796875 -26.375 17.171875 -25.15625 C 16.546875 -23.945312 15.984375 -22.695312 15.484375 -21.40625 C 15.453125 -21.257812 15.40625 -21.109375 15.34375 -20.953125 C 15.289062 -20.796875 15.222656 -20.644531 15.140625 -20.5 Z M 15.140625 -20.5 "/></g></g></g><g fill="#f4ca44" fill-opacity="1"><g transform="translate(47.565611, 62.990398)"><g><path d="M 30.34375 -23.34375 C 31.332031 -20.726562 31.5625 -18.175781 31.03125 -15.6875 C 30.5 -13.195312 29.394531 -10.972656 27.71875 -9.015625 C 26.050781 -7.066406 23.96875 -5.597656 21.46875 -4.609375 C 20.101562 -4.078125 18.640625 -3.617188 17.078125 -3.234375 C 15.523438 -2.859375 13.976562 -2.640625 12.4375 -2.578125 C 10.90625 -2.523438 9.492188 -2.71875 8.203125 -3.15625 C 6.910156 -3.59375 5.816406 -4.351562 4.921875 -5.4375 C 4.035156 -6.519531 3.457031 -8.03125 3.1875 -9.96875 C 2.84375 -12.320312 2.742188 -14.703125 2.890625 -17.109375 C 3.046875 -19.515625 3.179688 -21.894531 3.296875 -24.25 C 3.453125 -26.6875 3.613281 -29.097656 3.78125 -31.484375 C 3.957031 -33.878906 4.140625 -36.269531 4.328125 -38.65625 C 4.398438 -39.53125 4.671875 -40.269531 5.140625 -40.875 C 5.617188 -41.488281 6.203125 -41.945312 6.890625 -42.25 C 7.234375 -42.664062 7.648438 -43.015625 8.140625 -43.296875 C 8.628906 -43.585938 9.195312 -43.75 9.84375 -43.78125 C 14.59375 -44.195312 19.335938 -44.390625 24.078125 -44.359375 C 25.179688 -44.359375 26.066406 -44.0625 26.734375 -43.46875 C 27.398438 -42.882812 27.835938 -42.171875 28.046875 -41.328125 C 28.253906 -40.492188 28.253906 -39.648438 28.046875 -38.796875 C 27.835938 -37.941406 27.398438 -37.226562 26.734375 -36.65625 C 26.066406 -36.09375 25.179688 -35.8125 24.078125 -35.8125 C 20.328125 -35.851562 16.515625 -35.738281 12.640625 -35.46875 C 12.597656 -34.9375 12.546875 -34.40625 12.484375 -33.875 C 12.429688 -33.34375 12.390625 -32.8125 12.359375 -32.28125 C 14.785156 -32.351562 17.191406 -32.179688 19.578125 -31.765625 C 21.972656 -31.347656 24.128906 -30.472656 26.046875 -29.140625 C 27.960938 -27.816406 29.394531 -25.882812 30.34375 -23.34375 Z M 14.0625 -11.390625 C 15.125 -11.578125 16.269531 -11.894531 17.5 -12.34375 C 18.738281 -12.800781 19.847656 -13.398438 20.828125 -14.140625 C 21.816406 -14.890625 22.484375 -15.800781 22.828125 -16.875 C 23.171875 -17.957031 22.984375 -19.222656 22.265625 -20.671875 C 21.691406 -21.847656 20.828125 -22.679688 19.671875 -23.171875 C 18.515625 -23.660156 17.242188 -23.925781 15.859375 -23.96875 C 14.472656 -24.007812 13.132812 -23.953125 11.84375 -23.796875 C 11.800781 -23.421875 11.769531 -23.039062 11.75 -22.65625 C 11.738281 -22.28125 11.734375 -21.898438 11.734375 -21.515625 C 11.648438 -20.191406 11.570312 -18.835938 11.5 -17.453125 C 11.425781 -16.066406 11.40625 -14.707031 11.4375 -13.375 C 11.4375 -12.65625 11.457031 -11.972656 11.5 -11.328125 C 11.570312 -11.140625 11.628906 -10.96875 11.671875 -10.8125 C 12.015625 -10.925781 12.457031 -11.039062 13 -11.15625 C 13.550781 -11.269531 13.90625 -11.347656 14.0625 -11.390625 Z M 14.0625 -11.390625 "/></g></g></g><g fill="#f4ca44" fill-opacity="1"><g transform="translate(81.662343, 62.990398)"><g><path d="M 23.75 -12.015625 C 24.84375 -11.972656 25.722656 -11.648438 26.390625 -11.046875 C 27.054688 -10.441406 27.492188 -9.710938 27.703125 -8.859375 C 27.910156 -8.003906 27.910156 -7.15625 27.703125 -6.3125 C 27.492188 -5.476562 27.054688 -4.785156 26.390625 -4.234375 C 25.722656 -3.691406 24.84375 -3.4375 23.75 -3.46875 C 21.164062 -3.582031 18.582031 -3.570312 16 -3.4375 C 13.414062 -3.3125 10.832031 -3.039062 8.25 -2.625 C 7.457031 -2.507812 6.625 -2.59375 5.75 -2.875 C 4.875 -3.15625 4.140625 -3.617188 3.546875 -4.265625 C 2.960938 -4.910156 2.75 -5.75 2.90625 -6.78125 C 3.550781 -12.019531 4.257812 -17.253906 5.03125 -22.484375 C 5.8125 -27.722656 6.660156 -32.960938 7.578125 -38.203125 C 7.691406 -38.847656 7.914062 -39.398438 8.25 -39.859375 C 8.5625 -40.390625 9 -40.832031 9.5625 -41.1875 C 10.132812 -41.550781 10.835938 -41.753906 11.671875 -41.796875 C 15.773438 -41.910156 19.875 -41.832031 23.96875 -41.5625 C 25.070312 -41.488281 25.953125 -41.140625 26.609375 -40.515625 C 27.273438 -39.890625 27.710938 -39.148438 27.921875 -38.296875 C 28.128906 -37.441406 28.128906 -36.59375 27.921875 -35.75 C 27.710938 -34.914062 27.273438 -34.234375 26.609375 -33.703125 C 25.953125 -33.171875 25.070312 -32.945312 23.96875 -33.03125 C 21.15625 -33.21875 18.289062 -33.3125 15.375 -33.3125 C 15.1875 -32.207031 14.992188 -31.101562 14.796875 -30 C 14.609375 -28.90625 14.441406 -27.804688 14.296875 -26.703125 C 15.847656 -26.660156 17.347656 -26.566406 18.796875 -26.421875 C 19.929688 -26.304688 20.925781 -25.878906 21.78125 -25.140625 C 22.632812 -24.398438 23.0625 -23.40625 23.0625 -22.15625 C 23.0625 -21.425781 22.859375 -20.71875 22.453125 -20.03125 C 22.054688 -19.351562 21.535156 -18.804688 20.890625 -18.390625 C 20.242188 -17.972656 19.546875 -17.800781 18.796875 -17.875 C 16.859375 -18.0625 14.921875 -18.15625 12.984375 -18.15625 C 12.828125 -17.09375 12.671875 -16.007812 12.515625 -14.90625 C 12.367188 -13.8125 12.222656 -12.734375 12.078125 -11.671875 C 14.003906 -11.859375 15.9375 -11.976562 17.875 -12.03125 C 19.8125 -12.09375 21.769531 -12.085938 23.75 -12.015625 Z M 23.75 -12.015625 "/></g></g></g><g fill="#f4ca44" fill-opacity="1"><g transform="translate(112.571399, 62.990398)"><g><path d="M 25.96875 -41.28125 C 27.03125 -41.125 27.882812 -40.710938 28.53125 -40.046875 C 29.175781 -39.390625 29.609375 -38.625 29.828125 -37.75 C 30.054688 -36.875 30.054688 -36.023438 29.828125 -35.203125 C 29.609375 -34.390625 29.175781 -33.738281 28.53125 -33.25 C 27.882812 -32.757812 27.03125 -32.585938 25.96875 -32.734375 C 24.175781 -32.960938 22.351562 -33.132812 20.5 -33.25 C 20.226562 -29.113281 19.96875 -24.96875 19.71875 -20.8125 C 19.476562 -16.65625 19.222656 -12.507812 18.953125 -8.375 C 18.921875 -7.269531 18.59375 -6.394531 17.96875 -5.75 C 17.34375 -5.101562 16.601562 -4.664062 15.75 -4.4375 C 14.894531 -4.207031 14.046875 -4.195312 13.203125 -4.40625 C 12.367188 -4.613281 11.6875 -5.050781 11.15625 -5.71875 C 10.625 -6.382812 10.378906 -7.269531 10.421875 -8.375 C 10.679688 -12.550781 10.9375 -16.71875 11.1875 -20.875 C 11.4375 -25.03125 11.691406 -29.191406 11.953125 -33.359375 C 10.242188 -33.285156 8.578125 -33.175781 6.953125 -33.03125 C 5.847656 -32.914062 4.960938 -33.113281 4.296875 -33.625 C 3.628906 -34.132812 3.191406 -34.796875 2.984375 -35.609375 C 2.773438 -36.429688 2.785156 -37.273438 3.015625 -38.140625 C 3.242188 -39.015625 3.679688 -39.773438 4.328125 -40.421875 C 4.972656 -41.066406 5.847656 -41.445312 6.953125 -41.5625 C 13.285156 -42.164062 19.625 -42.070312 25.96875 -41.28125 Z M 25.96875 -41.28125 "/></g></g></g><g fill="#f4ca44" fill-opacity="1"><g transform="translate(145.415831, 62.990398)"><g><path d="M 28.46875 -35.875 C 27.332031 -33.9375 26.109375 -32.023438 24.796875 -30.140625 C 23.484375 -28.265625 21.972656 -26.585938 20.265625 -25.109375 C 23.910156 -20.929688 25.976562 -16 26.46875 -10.3125 C 26.550781 -9.207031 26.332031 -8.320312 25.8125 -7.65625 C 25.300781 -6.988281 24.640625 -6.550781 23.828125 -6.34375 C 23.015625 -6.132812 22.171875 -6.132812 21.296875 -6.34375 C 20.421875 -6.550781 19.660156 -6.988281 19.015625 -7.65625 C 18.367188 -8.320312 18.007812 -9.207031 17.9375 -10.3125 C 17.75 -12.320312 17.195312 -14.238281 16.28125 -16.0625 C 15.375 -17.882812 14.179688 -19.476562 12.703125 -20.84375 C 12.316406 -16.019531 11.800781 -11.253906 11.15625 -6.546875 C 11.039062 -5.785156 10.6875 -5.148438 10.09375 -4.640625 C 9.507812 -4.128906 8.828125 -3.769531 8.046875 -3.5625 C 7.273438 -3.351562 6.546875 -3.34375 5.859375 -3.53125 C 4.648438 -3.90625 3.816406 -4.585938 3.359375 -5.578125 C 2.898438 -6.566406 2.75 -7.648438 2.90625 -8.828125 C 3.625 -14.210938 4.160156 -19.617188 4.515625 -25.046875 C 4.878906 -30.472656 5.082031 -35.90625 5.125 -41.34375 C 5.125 -42.4375 5.40625 -43.316406 5.96875 -43.984375 C 6.539062 -44.648438 7.253906 -45.085938 8.109375 -45.296875 C 8.960938 -45.503906 9.816406 -45.503906 10.671875 -45.296875 C 11.523438 -45.085938 12.238281 -44.648438 12.8125 -43.984375 C 13.382812 -43.316406 13.671875 -42.4375 13.671875 -41.34375 C 13.628906 -39.476562 13.585938 -37.625 13.546875 -35.78125 C 13.515625 -33.945312 13.441406 -32.097656 13.328125 -30.234375 C 14.460938 -30.921875 15.503906 -31.84375 16.453125 -33 C 17.398438 -34.15625 18.253906 -35.378906 19.015625 -36.671875 C 19.773438 -37.960938 20.457031 -39.140625 21.0625 -40.203125 C 21.632812 -41.148438 22.328125 -41.753906 23.140625 -42.015625 C 23.960938 -42.285156 24.800781 -42.304688 25.65625 -42.078125 C 26.507812 -41.847656 27.25 -41.421875 27.875 -40.796875 C 28.5 -40.171875 28.882812 -39.429688 29.03125 -38.578125 C 29.1875 -37.722656 29 -36.820312 28.46875 -35.875 Z M 28.46875 -35.875 "/></g></g></g><g fill="#f4ca44" fill-opacity="1"><g transform="translate(177.292575, 62.990398)"><g><path d="M 29.5 -27.671875 C 29.613281 -23.878906 29.707031 -20.082031 29.78125 -16.28125 C 29.851562 -12.488281 29.945312 -8.691406 30.0625 -4.890625 C 30.101562 -3.796875 29.835938 -2.925781 29.265625 -2.28125 C 28.691406 -1.632812 27.988281 -1.195312 27.15625 -0.96875 C 26.320312 -0.738281 25.476562 -0.738281 24.625 -0.96875 C 23.769531 -1.195312 23.046875 -1.632812 22.453125 -2.28125 C 21.867188 -2.925781 21.554688 -3.796875 21.515625 -4.890625 C 21.484375 -6.035156 21.457031 -7.175781 21.4375 -8.3125 C 21.414062 -9.445312 21.382812 -10.585938 21.34375 -11.734375 L 12.8125 -12.078125 C 12.507812 -10.628906 12.222656 -9.179688 11.953125 -7.734375 C 11.691406 -6.296875 11.425781 -4.875 11.15625 -3.46875 C 10.96875 -2.375 10.539062 -1.578125 9.875 -1.078125 C 9.207031 -0.585938 8.4375 -0.351562 7.5625 -0.375 C 6.695312 -0.394531 5.875 -0.617188 5.09375 -1.046875 C 4.3125 -1.484375 3.703125 -2.097656 3.265625 -2.890625 C 2.835938 -3.691406 2.71875 -4.625 2.90625 -5.6875 C 3.582031 -9.414062 4.347656 -13.097656 5.203125 -16.734375 C 6.054688 -20.378906 7.265625 -23.929688 8.828125 -27.390625 C 9.585938 -29.128906 10.546875 -30.976562 11.703125 -32.9375 C 12.859375 -34.894531 14.195312 -36.695312 15.71875 -38.34375 C 17.238281 -40 18.90625 -41.222656 20.71875 -42.015625 C 22.425781 -42.742188 23.8125 -42.878906 24.875 -42.421875 C 25.9375 -41.960938 26.769531 -41.132812 27.375 -39.9375 C 27.988281 -38.738281 28.4375 -37.378906 28.71875 -35.859375 C 29.007812 -34.347656 29.203125 -32.851562 29.296875 -31.375 C 29.390625 -29.894531 29.457031 -28.660156 29.5 -27.671875 Z M 15.140625 -20.5 C 16.171875 -20.457031 17.175781 -20.414062 18.15625 -20.375 C 19.144531 -20.34375 20.132812 -20.304688 21.125 -20.265625 C 21.082031 -21.484375 21.050781 -22.707031 21.03125 -23.9375 C 21.019531 -25.175781 20.992188 -26.421875 20.953125 -27.671875 C 20.910156 -28.160156 20.890625 -28.679688 20.890625 -29.234375 C 20.890625 -29.785156 20.890625 -30.347656 20.890625 -30.921875 C 20.242188 -30.160156 19.695312 -29.421875 19.25 -28.703125 C 18.488281 -27.554688 17.796875 -26.375 17.171875 -25.15625 C 16.546875 -23.945312 15.984375 -22.695312 15.484375 -21.40625 C 15.453125 -21.257812 15.40625 -21.109375 15.34375 -20.953125 C 15.289062 -20.796875 15.222656 -20.644531 15.140625 -20.5 Z M 15.140625 -20.5 "/></g></g></g><g fill="#000000" fill-opacity="0.4"><g transform="translate(100.395623, 23.585864)"><g><path d="M 5.578125 -6.5 C 5.898438 -6.582031 6.171875 -6.5625 6.390625 -6.4375 C 6.617188 -6.3125 6.789062 -6.128906 6.90625 -5.890625 C 7.019531 -5.660156 7.066406 -5.410156 7.046875 -5.140625 C 7.035156 -4.878906 6.953125 -4.644531 6.796875 -4.4375 C 6.640625 -4.238281 6.398438 -4.101562 6.078125 -4.03125 C 5.273438 -3.84375 4.457031 -3.6875 3.625 -3.5625 C 2.800781 -3.4375 1.976562 -3.351562 1.15625 -3.3125 C 0.914062 -3.289062 0.703125 -3.347656 0.515625 -3.484375 C 0.335938 -3.628906 0.191406 -3.8125 0.078125 -4.03125 C -0.0234375 -4.257812 -0.0664062 -4.46875 -0.046875 -4.65625 C -0.00390625 -5.03125 0.144531 -5.316406 0.40625 -5.515625 C 0.675781 -5.722656 0.984375 -5.832031 1.328125 -5.84375 C 2.046875 -5.894531 2.757812 -5.972656 3.46875 -6.078125 C 4.175781 -6.191406 4.878906 -6.332031 5.578125 -6.5 Z M 0.484375 -6.65625 C 0.242188 -6.632812 0.0351562 -6.691406 -0.140625 -6.828125 C -0.328125 -6.972656 -0.472656 -7.15625 -0.578125 -7.375 C -0.691406 -7.59375 -0.738281 -7.800781 -0.71875 -8 C -0.675781 -8.375 -0.523438 -8.660156 -0.265625 -8.859375 C -0.00390625 -9.066406 0.300781 -9.171875 0.65625 -9.171875 C 1.375 -9.234375 2.082031 -9.316406 2.78125 -9.421875 C 3.488281 -9.535156 4.195312 -9.671875 4.90625 -9.828125 C 5.226562 -9.910156 5.5 -9.890625 5.71875 -9.765625 C 5.945312 -9.648438 6.117188 -9.472656 6.234375 -9.234375 C 6.347656 -9.003906 6.394531 -8.753906 6.375 -8.484375 C 6.351562 -8.222656 6.265625 -7.984375 6.109375 -7.765625 C 5.960938 -7.554688 5.726562 -7.421875 5.40625 -7.359375 C 4.601562 -7.160156 3.785156 -7.003906 2.953125 -6.890625 C 2.128906 -6.773438 1.304688 -6.695312 0.484375 -6.65625 Z M 0.484375 -6.65625 "/></g></g></g><g fill="#000000" fill-opacity="0.4"><g transform="translate(109.050349, 21.835542)"><g><path d="M 11.21875 -8.421875 C 11.425781 -7.484375 11.578125 -6.539062 11.671875 -5.59375 C 11.773438 -4.65625 11.878906 -3.710938 11.984375 -2.765625 C 12.003906 -2.421875 11.945312 -2.132812 11.8125 -1.90625 C 11.675781 -1.6875 11.484375 -1.515625 11.234375 -1.390625 C 10.992188 -1.273438 10.742188 -1.226562 10.484375 -1.25 C 10.234375 -1.269531 10.015625 -1.359375 9.828125 -1.515625 C 9.640625 -1.671875 9.53125 -1.921875 9.5 -2.265625 C 9.414062 -2.992188 9.34375 -3.753906 9.28125 -4.546875 C 9.21875 -5.347656 9.117188 -6.140625 8.984375 -6.921875 C 8.859375 -7.703125 8.648438 -8.445312 8.359375 -9.15625 C 8.316406 -9.28125 8.257812 -9.398438 8.1875 -9.515625 C 8.113281 -9.640625 8.054688 -9.765625 8.015625 -9.890625 C 7.921875 -9.734375 7.8125 -9.566406 7.6875 -9.390625 C 7.5625 -9.210938 7.476562 -9.054688 7.4375 -8.921875 C 7.25 -8.492188 7.128906 -8.054688 7.078125 -7.609375 C 7.023438 -7.160156 7.007812 -6.710938 7.03125 -6.265625 C 7.03125 -5.984375 6.953125 -5.75 6.796875 -5.5625 C 6.640625 -5.375 6.441406 -5.242188 6.203125 -5.171875 C 5.960938 -5.097656 5.710938 -5.082031 5.453125 -5.125 C 5.203125 -5.164062 4.988281 -5.265625 4.8125 -5.421875 C 4.632812 -5.585938 4.53125 -5.816406 4.5 -6.109375 C 4.46875 -6.410156 4.429688 -6.710938 4.390625 -7.015625 C 4.347656 -7.316406 4.289062 -7.617188 4.21875 -7.921875 C 4.195312 -8.023438 4.171875 -8.164062 4.140625 -8.34375 C 4.109375 -8.53125 4.0625 -8.707031 4 -8.875 C 3.945312 -9.050781 3.878906 -9.171875 3.796875 -9.234375 C 3.765625 -9.265625 3.753906 -9.289062 3.765625 -9.3125 C 3.722656 -9.289062 3.710938 -9.289062 3.734375 -9.3125 C 3.628906 -9.257812 3.546875 -9.140625 3.484375 -8.953125 C 3.429688 -8.765625 3.390625 -8.632812 3.359375 -8.5625 C 3.273438 -8.34375 3.207031 -8.113281 3.15625 -7.875 C 3.101562 -7.632812 3.0625 -7.398438 3.03125 -7.171875 C 2.863281 -6.117188 2.832031 -5.050781 2.9375 -3.96875 C 3.039062 -2.894531 3.164062 -1.832031 3.3125 -0.78125 C 3.351562 -0.445312 3.300781 -0.164062 3.15625 0.0625 C 3.007812 0.289062 2.816406 0.460938 2.578125 0.578125 C 2.347656 0.691406 2.101562 0.738281 1.84375 0.71875 C 1.59375 0.707031 1.367188 0.625 1.171875 0.46875 C 0.972656 0.3125 0.851562 0.0625 0.8125 -0.28125 C 0.695312 -1.144531 0.585938 -2.023438 0.484375 -2.921875 C 0.390625 -3.816406 0.34375 -4.703125 0.34375 -5.578125 C 0.351562 -6.128906 0.390625 -6.707031 0.453125 -7.3125 C 0.523438 -7.914062 0.644531 -8.503906 0.8125 -9.078125 C 0.976562 -9.660156 1.21875 -10.179688 1.53125 -10.640625 C 1.820312 -11.078125 2.203125 -11.40625 2.671875 -11.625 C 3.140625 -11.84375 3.625 -11.925781 4.125 -11.875 C 4.625 -11.832031 5.070312 -11.609375 5.46875 -11.203125 C 5.488281 -11.179688 5.515625 -11.160156 5.546875 -11.140625 C 5.578125 -11.117188 5.601562 -11.09375 5.625 -11.0625 C 5.863281 -11.507812 6.148438 -11.882812 6.484375 -12.1875 C 6.816406 -12.488281 7.191406 -12.664062 7.609375 -12.71875 C 8.023438 -12.78125 8.492188 -12.664062 9.015625 -12.375 C 9.460938 -12.125 9.828125 -11.773438 10.109375 -11.328125 C 10.390625 -10.890625 10.613281 -10.410156 10.78125 -9.890625 C 10.957031 -9.378906 11.101562 -8.890625 11.21875 -8.421875 Z M 11.21875 -8.421875 "/></g></g></g><g fill="#000000" fill-opacity="0.4"><g transform="translate(122.289909, 19.157988)"><g><path d="M 6.578125 -5.484375 C 6.878906 -5.640625 7.15625 -5.679688 7.40625 -5.609375 C 7.65625 -5.546875 7.863281 -5.414062 8.03125 -5.21875 C 8.207031 -5.03125 8.320312 -4.804688 8.375 -4.546875 C 8.425781 -4.296875 8.40625 -4.046875 8.3125 -3.796875 C 8.226562 -3.554688 8.035156 -3.363281 7.734375 -3.21875 C 7.210938 -2.9375 6.660156 -2.695312 6.078125 -2.5 C 5.503906 -2.3125 4.914062 -2.191406 4.3125 -2.140625 C 3.71875 -2.097656 3.125 -2.171875 2.53125 -2.359375 C 1.769531 -2.617188 1.140625 -3.054688 0.640625 -3.671875 C 0.140625 -4.285156 -0.175781 -4.992188 -0.3125 -5.796875 C -0.414062 -6.578125 -0.367188 -7.359375 -0.171875 -8.140625 C 0.015625 -8.921875 0.335938 -9.640625 0.796875 -10.296875 C 1.265625 -10.953125 1.832031 -11.5 2.5 -11.9375 C 3.164062 -12.375 3.898438 -12.648438 4.703125 -12.765625 C 5.023438 -12.796875 5.300781 -12.738281 5.53125 -12.59375 C 5.769531 -12.445312 5.941406 -12.253906 6.046875 -12.015625 C 6.160156 -11.785156 6.210938 -11.539062 6.203125 -11.28125 C 6.191406 -11.019531 6.101562 -10.796875 5.9375 -10.609375 C 5.769531 -10.421875 5.523438 -10.3125 5.203125 -10.28125 C 4.609375 -10.195312 4.082031 -9.972656 3.625 -9.609375 C 3.164062 -9.242188 2.804688 -8.796875 2.546875 -8.265625 C 2.285156 -7.734375 2.164062 -7.171875 2.1875 -6.578125 C 2.1875 -6.046875 2.289062 -5.644531 2.5 -5.375 C 2.707031 -5.113281 2.972656 -4.9375 3.296875 -4.84375 C 3.628906 -4.75 3.988281 -4.722656 4.375 -4.765625 C 4.769531 -4.816406 5.15625 -4.910156 5.53125 -5.046875 C 5.914062 -5.179688 6.265625 -5.328125 6.578125 -5.484375 Z M 6.578125 -5.484375 "/></g></g></g><g fill="#000000" fill-opacity="0.4"><g transform="translate(132.05762, 17.182577)"><g><path d="M 7.78125 -4.71875 C 8.125 -4.695312 8.394531 -4.59375 8.59375 -4.40625 C 8.800781 -4.21875 8.925781 -3.988281 8.96875 -3.71875 C 9.019531 -3.457031 9 -3.195312 8.90625 -2.9375 C 8.8125 -2.6875 8.648438 -2.472656 8.421875 -2.296875 C 8.203125 -2.128906 7.914062 -2.054688 7.5625 -2.078125 C 6.96875 -2.097656 6.40625 -2.023438 5.875 -1.859375 C 5.351562 -1.691406 4.820312 -1.5 4.28125 -1.28125 C 3.9375 -1.164062 3.5625 -1.015625 3.15625 -0.828125 C 2.757812 -0.640625 2.359375 -0.570312 1.953125 -0.625 C 1.472656 -0.65625 1.117188 -0.78125 0.890625 -1 C 0.671875 -1.21875 0.535156 -1.488281 0.484375 -1.8125 C 0.441406 -2.144531 0.460938 -2.492188 0.546875 -2.859375 C 0.640625 -3.234375 0.753906 -3.59375 0.890625 -3.9375 C 1.023438 -4.289062 1.148438 -4.597656 1.265625 -4.859375 C 1.671875 -5.734375 2.09375 -6.609375 2.53125 -7.484375 C 2.976562 -8.359375 3.335938 -9.257812 3.609375 -10.1875 C 3.648438 -10.351562 3.703125 -10.554688 3.765625 -10.796875 C 3.835938 -11.046875 3.859375 -11.273438 3.828125 -11.484375 C 3.804688 -11.703125 3.679688 -11.847656 3.453125 -11.921875 C 3.179688 -11.992188 2.960938 -11.945312 2.796875 -11.78125 C 2.640625 -11.625 2.53125 -11.421875 2.46875 -11.171875 C 2.40625 -10.929688 2.382812 -10.710938 2.40625 -10.515625 C 2.445312 -10.191406 2.390625 -9.910156 2.234375 -9.671875 C 2.085938 -9.441406 1.882812 -9.265625 1.625 -9.140625 C 1.363281 -9.015625 1.09375 -8.957031 0.8125 -8.96875 C 0.539062 -8.988281 0.296875 -9.078125 0.078125 -9.234375 C -0.128906 -9.398438 -0.25 -9.648438 -0.28125 -9.984375 C -0.351562 -10.546875 -0.328125 -11.101562 -0.203125 -11.65625 C -0.0859375 -12.207031 0.132812 -12.710938 0.46875 -13.171875 C 0.800781 -13.628906 1.242188 -13.988281 1.796875 -14.25 C 2.296875 -14.46875 2.820312 -14.570312 3.375 -14.5625 C 3.925781 -14.5625 4.441406 -14.441406 4.921875 -14.203125 C 5.410156 -13.960938 5.796875 -13.625 6.078125 -13.1875 C 6.441406 -12.644531 6.617188 -12.070312 6.609375 -11.46875 C 6.597656 -10.863281 6.492188 -10.253906 6.296875 -9.640625 C 6.109375 -9.023438 5.90625 -8.445312 5.6875 -7.90625 C 5.488281 -7.414062 5.273438 -6.9375 5.046875 -6.46875 C 4.828125 -6.007812 4.601562 -5.546875 4.375 -5.078125 C 4.289062 -4.890625 4.203125 -4.703125 4.109375 -4.515625 C 4.023438 -4.335938 3.9375 -4.15625 3.84375 -3.96875 C 4.007812 -4.03125 4.164062 -4.085938 4.3125 -4.140625 C 4.46875 -4.191406 4.628906 -4.238281 4.796875 -4.28125 C 5.273438 -4.457031 5.757812 -4.578125 6.25 -4.640625 C 6.75 -4.710938 7.257812 -4.738281 7.78125 -4.71875 Z M 7.78125 -4.71875 "/></g></g></g><g fill="#78b7d0" fill-opacity="1"><g transform="translate(99.512424, 22.999805)"><g><path d="M 5.578125 -6.5 C 5.898438 -6.582031 6.171875 -6.5625 6.390625 -6.4375 C 6.617188 -6.3125 6.789062 -6.128906 6.90625 -5.890625 C 7.019531 -5.660156 7.066406 -5.410156 7.046875 -5.140625 C 7.035156 -4.878906 6.953125 -4.644531 6.796875 -4.4375 C 6.640625 -4.238281 6.398438 -4.101562 6.078125 -4.03125 C 5.273438 -3.84375 4.457031 -3.6875 3.625 -3.5625 C 2.800781 -3.4375 1.976562 -3.351562 1.15625 -3.3125 C 0.914062 -3.289062 0.703125 -3.347656 0.515625 -3.484375 C 0.335938 -3.628906 0.191406 -3.8125 0.078125 -4.03125 C -0.0234375 -4.257812 -0.0664062 -4.46875 -0.046875 -4.65625 C -0.00390625 -5.03125 0.144531 -5.316406 0.40625 -5.515625 C 0.675781 -5.722656 0.984375 -5.832031 1.328125 -5.84375 C 2.046875 -5.894531 2.757812 -5.972656 3.46875 -6.078125 C 4.175781 -6.191406 4.878906 -6.332031 5.578125 -6.5 Z M 0.484375 -6.65625 C 0.242188 -6.632812 0.0351562 -6.691406 -0.140625 -6.828125 C -0.328125 -6.972656 -0.472656 -7.15625 -0.578125 -7.375 C -0.691406 -7.59375 -0.738281 -7.800781 -0.71875 -8 C -0.675781 -8.375 -0.523438 -8.660156 -0.265625 -8.859375 C -0.00390625 -9.066406 0.300781 -9.171875 0.65625 -9.171875 C 1.375 -9.234375 2.082031 -9.316406 2.78125 -9.421875 C 3.488281 -9.535156 4.195312 -9.671875 4.90625 -9.828125 C 5.226562 -9.910156 5.5 -9.890625 5.71875 -9.765625 C 5.945312 -9.648438 6.117188 -9.472656 6.234375 -9.234375 C 6.347656 -9.003906 6.394531 -8.753906 6.375 -8.484375 C 6.351562 -8.222656 6.265625 -7.984375 6.109375 -7.765625 C 5.960938 -7.554688 5.726562 -7.421875 5.40625 -7.359375 C 4.601562 -7.160156 3.785156 -7.003906 2.953125 -6.890625 C 2.128906 -6.773438 1.304688 -6.695312 0.484375 -6.65625 Z M 0.484375 -6.65625 "/></g></g></g><g fill="#78b7d0" fill-opacity="1"><g transform="translate(108.16715, 21.249483)"><g><path d="M 11.21875 -8.421875 C 11.425781 -7.484375 11.578125 -6.539062 11.671875 -5.59375 C 11.773438 -4.65625 11.878906 -3.710938 11.984375 -2.765625 C 12.003906 -2.421875 11.945312 -2.132812 11.8125 -1.90625 C 11.675781 -1.6875 11.484375 -1.515625 11.234375 -1.390625 C 10.992188 -1.273438 10.742188 -1.226562 10.484375 -1.25 C 10.234375 -1.269531 10.015625 -1.359375 9.828125 -1.515625 C 9.640625 -1.671875 9.53125 -1.921875 9.5 -2.265625 C 9.414062 -2.992188 9.34375 -3.753906 9.28125 -4.546875 C 9.21875 -5.347656 9.117188 -6.140625 8.984375 -6.921875 C 8.859375 -7.703125 8.648438 -8.445312 8.359375 -9.15625 C 8.316406 -9.28125 8.257812 -9.398438 8.1875 -9.515625 C 8.113281 -9.640625 8.054688 -9.765625 8.015625 -9.890625 C 7.921875 -9.734375 7.8125 -9.566406 7.6875 -9.390625 C 7.5625 -9.210938 7.476562 -9.054688 7.4375 -8.921875 C 7.25 -8.492188 7.128906 -8.054688 7.078125 -7.609375 C 7.023438 -7.160156 7.007812 -6.710938 7.03125 -6.265625 C 7.03125 -5.984375 6.953125 -5.75 6.796875 -5.5625 C 6.640625 -5.375 6.441406 -5.242188 6.203125 -5.171875 C 5.960938 -5.097656 5.710938 -5.082031 5.453125 -5.125 C 5.203125 -5.164062 4.988281 -5.265625 4.8125 -5.421875 C 4.632812 -5.585938 4.53125 -5.816406 4.5 -6.109375 C 4.46875 -6.410156 4.429688 -6.710938 4.390625 -7.015625 C 4.347656 -7.316406 4.289062 -7.617188 4.21875 -7.921875 C 4.195312 -8.023438 4.171875 -8.164062 4.140625 -8.34375 C 4.109375 -8.53125 4.0625 -8.707031 4 -8.875 C 3.945312 -9.050781 3.878906 -9.171875 3.796875 -9.234375 C 3.765625 -9.265625 3.753906 -9.289062 3.765625 -9.3125 C 3.722656 -9.289062 3.710938 -9.289062 3.734375 -9.3125 C 3.628906 -9.257812 3.546875 -9.140625 3.484375 -8.953125 C 3.429688 -8.765625 3.390625 -8.632812 3.359375 -8.5625 C 3.273438 -8.34375 3.207031 -8.113281 3.15625 -7.875 C 3.101562 -7.632812 3.0625 -7.398438 3.03125 -7.171875 C 2.863281 -6.117188 2.832031 -5.050781 2.9375 -3.96875 C 3.039062 -2.894531 3.164062 -1.832031 3.3125 -0.78125 C 3.351562 -0.445312 3.300781 -0.164062 3.15625 0.0625 C 3.007812 0.289062 2.816406 0.460938 2.578125 0.578125 C 2.347656 0.691406 2.101562 0.738281 1.84375 0.71875 C 1.59375 0.707031 1.367188 0.625 1.171875 0.46875 C 0.972656 0.3125 0.851562 0.0625 0.8125 -0.28125 C 0.695312 -1.144531 0.585938 -2.023438 0.484375 -2.921875 C 0.390625 -3.816406 0.34375 -4.703125 0.34375 -5.578125 C 0.351562 -6.128906 0.390625 -6.707031 0.453125 -7.3125 C 0.523438 -7.914062 0.644531 -8.503906 0.8125 -9.078125 C 0.976562 -9.660156 1.21875 -10.179688 1.53125 -10.640625 C 1.820312 -11.078125 2.203125 -11.40625 2.671875 -11.625 C 3.140625 -11.84375 3.625 -11.925781 4.125 -11.875 C 4.625 -11.832031 5.070312 -11.609375 5.46875 -11.203125 C 5.488281 -11.179688 5.515625 -11.160156 5.546875 -11.140625 C 5.578125 -11.117188 5.601562 -11.09375 5.625 -11.0625 C 5.863281 -11.507812 6.148438 -11.882812 6.484375 -12.1875 C 6.816406 -12.488281 7.191406 -12.664062 7.609375 -12.71875 C 8.023438 -12.78125 8.492188 -12.664062 9.015625 -12.375 C 9.460938 -12.125 9.828125 -11.773438 10.109375 -11.328125 C 10.390625 -10.890625 10.613281 -10.410156 10.78125 -9.890625 C 10.957031 -9.378906 11.101562 -8.890625 11.21875 -8.421875 Z M 11.21875 -8.421875 "/></g></g></g><g fill="#78b7d0" fill-opacity="1"><g transform="translate(121.40671, 18.57193)"><g><path d="M 6.578125 -5.484375 C 6.878906 -5.640625 7.15625 -5.679688 7.40625 -5.609375 C 7.65625 -5.546875 7.863281 -5.414062 8.03125 -5.21875 C 8.207031 -5.03125 8.320312 -4.804688 8.375 -4.546875 C 8.425781 -4.296875 8.40625 -4.046875 8.3125 -3.796875 C 8.226562 -3.554688 8.035156 -3.363281 7.734375 -3.21875 C 7.210938 -2.9375 6.660156 -2.695312 6.078125 -2.5 C 5.503906 -2.3125 4.914062 -2.191406 4.3125 -2.140625 C 3.71875 -2.097656 3.125 -2.171875 2.53125 -2.359375 C 1.769531 -2.617188 1.140625 -3.054688 0.640625 -3.671875 C 0.140625 -4.285156 -0.175781 -4.992188 -0.3125 -5.796875 C -0.414062 -6.578125 -0.367188 -7.359375 -0.171875 -8.140625 C 0.015625 -8.921875 0.335938 -9.640625 0.796875 -10.296875 C 1.265625 -10.953125 1.832031 -11.5 2.5 -11.9375 C 3.164062 -12.375 3.898438 -12.648438 4.703125 -12.765625 C 5.023438 -12.796875 5.300781 -12.738281 5.53125 -12.59375 C 5.769531 -12.445312 5.941406 -12.253906 6.046875 -12.015625 C 6.160156 -11.785156 6.210938 -11.539062 6.203125 -11.28125 C 6.191406 -11.019531 6.101562 -10.796875 5.9375 -10.609375 C 5.769531 -10.421875 5.523438 -10.3125 5.203125 -10.28125 C 4.609375 -10.195312 4.082031 -9.972656 3.625 -9.609375 C 3.164062 -9.242188 2.804688 -8.796875 2.546875 -8.265625 C 2.285156 -7.734375 2.164062 -7.171875 2.1875 -6.578125 C 2.1875 -6.046875 2.289062 -5.644531 2.5 -5.375 C 2.707031 -5.113281 2.972656 -4.9375 3.296875 -4.84375 C 3.628906 -4.75 3.988281 -4.722656 4.375 -4.765625 C 4.769531 -4.816406 5.15625 -4.910156 5.53125 -5.046875 C 5.914062 -5.179688 6.265625 -5.328125 6.578125 -5.484375 Z M 6.578125 -5.484375 "/></g></g></g><g fill="#78b7d0" fill-opacity="1"><g transform="translate(131.174421, 16.596519)"><g><path d="M 7.78125 -4.71875 C 8.125 -4.695312 8.394531 -4.59375 8.59375 -4.40625 C 8.800781 -4.21875 8.925781 -3.988281 8.96875 -3.71875 C 9.019531 -3.457031 9 -3.195312 8.90625 -2.9375 C 8.8125 -2.6875 8.648438 -2.472656 8.421875 -2.296875 C 8.203125 -2.128906 7.914062 -2.054688 7.5625 -2.078125 C 6.96875 -2.097656 6.40625 -2.023438 5.875 -1.859375 C 5.351562 -1.691406 4.820312 -1.5 4.28125 -1.28125 C 3.9375 -1.164062 3.5625 -1.015625 3.15625 -0.828125 C 2.757812 -0.640625 2.359375 -0.570312 1.953125 -0.625 C 1.472656 -0.65625 1.117188 -0.78125 0.890625 -1 C 0.671875 -1.21875 0.535156 -1.488281 0.484375 -1.8125 C 0.441406 -2.144531 0.460938 -2.492188 0.546875 -2.859375 C 0.640625 -3.234375 0.753906 -3.59375 0.890625 -3.9375 C 1.023438 -4.289062 1.148438 -4.597656 1.265625 -4.859375 C 1.671875 -5.734375 2.09375 -6.609375 2.53125 -7.484375 C 2.976562 -8.359375 3.335938 -9.257812 3.609375 -10.1875 C 3.648438 -10.351562 3.703125 -10.554688 3.765625 -10.796875 C 3.835938 -11.046875 3.859375 -11.273438 3.828125 -11.484375 C 3.804688 -11.703125 3.679688 -11.847656 3.453125 -11.921875 C 3.179688 -11.992188 2.960938 -11.945312 2.796875 -11.78125 C 2.640625 -11.625 2.53125 -11.421875 2.46875 -11.171875 C 2.40625 -10.929688 2.382812 -10.710938 2.40625 -10.515625 C 2.445312 -10.191406 2.390625 -9.910156 2.234375 -9.671875 C 2.085938 -9.441406 1.882812 -9.265625 1.625 -9.140625 C 1.363281 -9.015625 1.09375 -8.957031 0.8125 -8.96875 C 0.539062 -8.988281 0.296875 -9.078125 0.078125 -9.234375 C -0.128906 -9.398438 -0.25 -9.648438 -0.28125 -9.984375 C -0.351562 -10.546875 -0.328125 -11.101562 -0.203125 -11.65625 C -0.0859375 -12.207031 0.132812 -12.710938 0.46875 -13.171875 C 0.800781 -13.628906 1.242188 -13.988281 1.796875 -14.25 C 2.296875 -14.46875 2.820312 -14.570312 3.375 -14.5625 C 3.925781 -14.5625 4.441406 -14.441406 4.921875 -14.203125 C 5.410156 -13.960938 5.796875 -13.625 6.078125 -13.1875 C 6.441406 -12.644531 6.617188 -12.070312 6.609375 -11.46875 C 6.597656 -10.863281 6.492188 -10.253906 6.296875 -9.640625 C 6.109375 -9.023438 5.90625 -8.445312 5.6875 -7.90625 C 5.488281 -7.414062 5.273438 -6.9375 5.046875 -6.46875 C 4.828125 -6.007812 4.601562 -5.546875 4.375 -5.078125 C 4.289062 -4.890625 4.203125 -4.703125 4.109375 -4.515625 C 4.023438 -4.335938 3.9375 -4.15625 3.84375 -3.96875 C 4.007812 -4.03125 4.164062 -4.085938 4.3125 -4.140625 C 4.46875 -4.191406 4.628906 -4.238281 4.796875 -4.28125 C 5.273438 -4.457031 5.757812 -4.578125 6.25 -4.640625 C 6.75 -4.710938 7.257812 -4.738281 7.78125 -4.71875 Z M 7.78125 -4.71875 "/></g></g></g></svg>